<?xml version="1.0" encoding="utf-8"?>
<!-- Generator: Adobe Illustrator 27.0.0, SVG Export Plug-In . SVG Version: 6.00 Build 0)  -->
<svg version="1.1" id="Layer_2_00000102502996490011618280000006082989457825981620_"
	 xmlns="http://www.w3.org/2000/svg" xmlns:xlink="http://www.w3.org/1999/xlink" x="0px" y="0px" viewBox="0 0 900 900"
	 style="enable-background:new 0 0 900 900;" xml:space="preserve">
<style type="text/css">
	.st0{fill:#FFFFFF;stroke:#231F20;stroke-miterlimit:10;}
	.st1{fill:#AB0000;}
	.st2{fill:none;}
</style>
<path class="st0" d="M123,19.6"/>
<g>
	<polygon class="st1" points="413.1,25 506.8,25 796.1,539.6 312.3,539.6 362,449.1 653.6,448.1 	"/>
	<polygon class="st1" points="400.8,32.6 636.1,434.9 546.6,434.9 400.8,194 144.7,639 99.3,549.5 	"/>
	<polygon class="st1" points="400.8,218.2 440.6,282.5 290.5,552.8 800.7,552.8 755.3,645.6 155.6,645.6 	"/>
</g>
<g>
	<path class="st1" d="M288.5,874.7h-16.8l-2.8-18.5h-20.5l-2.8,18.5h-15.2L247.5,772H272L288.5,874.7z M250.3,842.4h16.1l-8.1-51.9
		L250.3,842.4z"/>
	<path class="st1" d="M314.9,800.6v74.2H300V772.3h21.1l17.1,61.3v-61.3H353v102.8H336L314.9,800.6z"/>
	<path class="st1" d="M393.7,817.5h23.3v32.7c0,8.2-2.2,14.8-6.2,19.2c-4.3,4.4-10.5,6.6-18.6,6.6s-14.3-2.2-18.6-6.6
		c-4.3-4.4-6.2-10.7-6.2-19.2v-53.4c0-8.2,2.2-14.8,6.2-19.2c4.3-4.4,10.5-6.6,18.6-6.6s14.3,2.2,18.6,6.6
		c4.3,4.4,6.2,10.7,6.2,19.2v10.1h-15.8v-11c0.3-2.8-0.6-5.7-2.5-7.9c-3.7-3.1-9-3.1-12.7,0c-1.9,2.2-2.8,5-2.5,7.9v55.6
		c-0.3,2.8,0.6,5.7,2.5,7.9c3.7,2.8,9,2.8,12.7,0c1.9-2.2,2.8-5,2.5-7.9v-18.9h-7.4V817.5z"/>
	<path class="st1" d="M448.3,815.3h23v14.8h-23v30.2h28.9v14.8h-45.6V772.3h45.6v14.8h-28.9V815.3z"/>
	<path class="st1" d="M491.1,772.3h16.8v88h27.3v14.8h-44.1V772.3z"/>
	<path class="st1" d="M571.4,772.3c8.7,0,14.9,1.9,18.9,6c4,4.1,5.9,9.7,5.9,17.6v3.8c0.3,4.4-0.6,8.8-2.5,13.2
		c-1.6,3.5-4.7,6-8.1,7.5c4.3,1.3,7.8,4.4,9.6,8.2c2.2,4.4,3.1,9.1,2.8,13.8v8.5c0,7.9-2.2,13.8-6.5,18.2
		c-4.3,4.1-10.5,6.3-18.9,6.3h-26.4V772.3H571.4z M563,786.7v27h6.5c2.8,0,5.3-0.6,7.4-2.2c2.2-2.2,3.1-5.3,2.8-8.5v-5.7
		c0.3-2.8-0.6-5.7-2.2-8.2c-1.6-1.9-4-2.8-6.5-2.5L563,786.7z M563,828.5V860h9.6c2.5,0.3,4.7-0.6,6.5-2.2c1.9-2.2,2.5-5,2.2-7.9
		v-8.8c0.3-3.5-0.6-6.9-2.5-9.7c-2.2-1.9-5.3-2.8-8.4-2.5L563,828.5z"/>
	<path class="st1" d="M610.2,796.8c0-8.2,2.2-14.8,6.5-19.2c10.9-8.8,26.7-8.8,37.5,0c4.3,4.4,6.5,10.7,6.5,19.2v53.4
		c0,8.2-2.2,14.8-6.5,19.2c-10.9,8.8-26.7,8.8-37.5,0c-4.3-4.4-6.5-10.7-6.5-19.2V796.8z M626.9,851.2c-0.3,2.8,0.6,5.7,2.5,7.9
		c3.7,3.1,9,3.1,12.7,0c1.9-2.2,2.8-5,2.5-7.9v-55.6c0.3-2.8-0.6-5.7-2.5-7.9c-3.7-3.1-9-3.1-12.7,0c-1.9,2.2-2.8,5-2.5,7.9V851.2z"
		/>
	<path class="st1" d="M670.7,772.3h51.5v14.8h-17.4v88h-16.8v-88h-17.4V772.3z"/>
	<path class="st1" d="M733.3,772.3h16.8v102.8h-16.8V772.3z"/>
	<path class="st1" d="M814.3,836.4v13.5c0,8.2-2.2,14.8-6.2,19.2c-4,4.4-10.5,6.6-18.6,6.6s-14.3-2.2-18.6-6.6s-6.2-10.7-6.2-19.2
		v-53.4c0-8.2,2.2-14.8,6.2-19.2c4.3-4.4,10.5-6.6,18.6-6.6s14.3,2.2,18.6,6.6c4.3,4.4,6.2,10.7,6.2,19.2v10.1h-15.8v-11
		c0.3-2.8-0.6-5.7-2.5-7.9c-3.7-3.1-9-3.1-12.7,0c-1.9,2.2-2.8,5-2.5,7.9v55.6c-0.3,2.8,0.6,5.7,2.5,7.9c3.7,2.8,9,2.8,12.7,0
		c1.9-2.2,2.8-5,2.5-7.9v-14.8H814.3z"/>
	<path class="st1" d="M826.1,796.8c0-8.2,2.2-14.8,6.2-19.2c4-4.4,10.2-6.6,18.3-6.6s14.3,2.2,18.3,6.6c4,4.4,6.2,10.7,6.2,19.2v3.1
		h-15.8v-4.4c0.3-2.8-0.6-5.7-2.2-7.9c-3.4-3.1-8.7-3.1-12.4,0c-1.9,2.2-2.5,5-2.2,7.9c0,3.1,0.6,6.6,2.5,9.4
		c1.6,2.8,3.7,5.3,6.2,7.5c2.5,2.5,5,4.7,7.8,7.2s5.3,5,7.8,7.9s4.7,6.3,6.2,9.7c1.6,4.1,2.5,8.5,2.5,12.9c0,8.2-2.2,14.8-6.2,19.2
		c-4.3,4.4-10.5,6.6-18.6,6.6s-14.3-2.2-18.6-6.6s-6.2-10.7-6.2-19.2v-6.3h15.8v7.5c-0.3,2.8,0.6,5.7,2.5,7.9c3.7,2.8,9,2.8,12.7,0
		c1.9-2.2,2.8-5,2.5-7.9c0-3.1-0.6-6.6-2.5-9.4c-1.6-2.8-3.7-5.3-6.2-7.5c-2.5-2.5-5-4.7-7.8-7.2c-2.8-2.5-5.3-5-7.8-7.9
		c-2.5-2.8-4.7-6.3-6.2-9.7C827,805.6,826.1,801.2,826.1,796.8z"/>
</g>
<line class="st2" x1="898.6" y1="760.4" x2="105.2" y2="760.4"/>
</svg>
